<svg width="17" height="19" viewBox="0 0 17 19" fill="none" xmlns="http://www.w3.org/2000/svg">
<path d="M6.89843 6.9426C6.73729 7.02087 6.60499 7.08597 6.47229 7.14956C5.58603 7.57328 4.65632 7.81374 3.65593 7.75504C1.84826 7.64892 0.321399 6.37739 0.0287439 4.73369C-0.022994 4.44281 -0.0127233 4.15908 0.124718 3.88776C0.303628 3.53517 0.640517 3.32782 0.98096 3.36056C1.30087 3.39142 1.56824 3.62209 1.65987 4.00969C1.82812 4.72128 2.25703 5.24998 2.89487 5.61876C3.75822 6.11774 4.65988 6.09215 5.56391 5.71284C6.276 5.41405 6.8854 4.96286 7.48414 4.50114C8.31787 3.85841 9.13106 3.19085 9.97901 2.56618C10.3503 2.29299 10.7665 2.05629 11.1962 1.87755C12.7353 1.23708 14.3242 1.79138 15.1054 3.20891C15.8744 4.60425 15.5679 6.22348 14.3218 7.37497C13.5541 8.08468 12.6255 8.53474 11.6342 8.87567C11.1398 9.04576 10.6287 9.1722 10.1267 9.32347C9.96597 9.37201 9.88224 9.34078 9.85934 9.16731C9.80562 8.76315 9.73059 8.36126 9.68043 7.95674C9.64528 7.67413 9.67174 7.65381 9.95689 7.5778C10.744 7.36782 11.5213 7.13225 12.2393 6.74955C12.6911 6.50834 13.109 6.2231 13.4016 5.80691C13.84 5.18375 13.8566 4.53952 13.4577 3.89341C13.1757 3.43658 12.7124 3.26197 12.1729 3.39292C11.6232 3.52651 11.171 3.8332 10.7349 4.15795C10.1287 4.60989 9.53864 5.0814 8.93635 5.53861C8.79733 5.64435 8.77442 5.77041 8.79536 5.92206C8.97664 7.24627 9.15594 8.57049 9.33801 9.89432C9.37553 10.1679 9.4174 10.4411 9.46716 10.7128C9.49165 10.8464 9.4482 10.9156 9.31787 10.9758C8.78627 11.2215 8.25941 11.4767 7.73414 11.7344C7.58643 11.8071 7.56589 11.7326 7.55009 11.6227C7.48098 11.1508 7.40791 10.6793 7.34077 10.207C7.32261 10.078 7.27798 10.0102 7.12395 10.0524C6.04061 10.3493 4.96596 10.6669 3.99124 11.2249C3.28428 11.6298 2.68278 12.1371 2.34273 12.8731C2.06785 13.4677 2.02638 14.0645 2.41817 14.6342C2.76374 15.1366 3.27559 15.3044 3.83879 15.0403C4.27757 14.8341 4.68753 14.5639 5.08484 14.2884C5.96241 13.6799 6.79298 13.0064 7.6982 12.4396C9.2373 11.4763 10.9371 10.9596 12.7993 11.0834C14.4158 11.1907 15.7744 11.7886 16.7192 13.1004C16.9755 13.4564 17.0904 13.8346 16.9178 14.2546C16.665 14.8687 15.951 15.009 15.4628 14.5421C15.3981 14.48 15.3372 14.413 15.2831 14.3422C14.5327 13.3571 13.481 12.9367 12.242 12.8762C11.4541 12.8374 10.6982 12.9924 9.96045 13.2449C9.8076 13.2972 9.74599 13.3815 9.75389 13.54C9.83722 15.1588 9.48019 16.6938 8.75902 18.1546C8.65989 18.3559 8.53193 18.5546 8.37434 18.7168C8.0805 19.0201 7.62276 19.0791 7.27008 18.897C6.91936 18.7164 6.73334 18.3393 6.83484 17.9329C6.89685 17.6853 7.00546 17.4464 7.11091 17.2104C7.45965 16.4318 7.71597 15.6322 7.75309 14.7799C7.75625 14.7072 7.75349 14.6346 7.75349 14.562C7.73335 14.5518 7.7132 14.5417 7.69306 14.5315C7.60025 14.5962 7.50626 14.6595 7.41502 14.7261C6.70531 15.245 6.01138 15.7846 5.28192 16.2772C4.73097 16.6494 4.11683 16.9094 3.42212 16.9493C2.25545 17.0166 1.2282 16.4394 0.731354 15.42C0.130246 14.1872 0.316265 12.9981 0.989252 11.853C1.66777 10.6985 2.72425 9.93798 3.94463 9.3611C4.85656 8.92986 5.81825 8.62693 6.79575 8.36841C6.99914 8.3146 7.07695 8.23746 7.0414 8.02936C6.99164 7.73923 6.97663 7.44346 6.94385 7.15032C6.93714 7.09161 6.91857 7.03404 6.89804 6.9426" fill="#090909"/>
<path d="M6.88518 4.2961C6.87175 4.22536 6.85595 4.18397 6.85753 4.14332C6.91006 3.01065 7.06527 1.89717 7.55382 0.848785C7.6257 0.694877 7.70588 0.541721 7.80422 0.402113C8.05817 0.04199 8.45746 -0.0859533 8.83029 0.0577948C9.22958 0.211703 9.46773 0.622627 9.38203 1.03543C9.3532 1.17466 9.28132 1.30562 9.2355 1.44259C9.10201 1.84072 8.95667 2.23584 8.84727 2.63999C8.79869 2.81986 8.73313 2.95383 8.57199 3.06822C8.06646 3.42722 7.57396 3.80352 7.07594 4.17192C7.02183 4.21219 6.9622 4.24606 6.88518 4.2961Z" fill="#090909"/>
</svg>
